<svg width="50" height="50" viewBox="0 0 50 50" fill="none" xmlns="http://www.w3.org/2000/svg">

    <!-- Socials -->
    <g id="telegram">
        <path fill-rule="evenodd" clip-rule="evenodd" d="M23.1117 4.49449C23.4296 2.94472 21.9074 1.65683 20.4317 2.227L2.3425 9.21601C0.694517 9.85273 0.621087 12.1572 2.22518 12.8975L6.1645 14.7157L8.03849 21.2746C8.13583 21.6153 8.40618 21.8791 8.74917 21.968C9.09216 22.0568 9.45658 21.9576 9.70712 21.707L12.5938 18.8203L16.6375 21.8531C17.8113 22.7334 19.5019 22.0922 19.7967 20.6549L23.1117 4.49449ZM3.0633 11.0816L21.1525 4.0926L17.8375 20.2531L13.1 16.6999C12.7019 16.4013 12.1448 16.4409 11.7929 16.7928L10.5565 18.0292L10.928 15.9861L18.2071 8.70703C18.5614 8.35278 18.5988 7.79106 18.2947 7.39293C17.9906 6.99479 17.4389 6.88312 17.0039 7.13168L6.95124 12.876L3.0633 11.0816ZM8.17695 14.4791L8.78333 16.6015L9.01614 15.321C9.05253 15.1209 9.14908 14.9366 9.29291 14.7928L11.5128 12.573L8.17695 14.4791Z" fill="currentColor"/>
    </g>
    <g id="github">
        <path d="M4.0744 2.9938C4.13263 1.96371 4.37869 1.51577 5.08432 1.15606C5.84357 0.768899 7.04106 0.949072 8.45014 1.66261C9.05706 1.97009 9.11886 1.97635 10.1825 1.83998C11.5963 1.65865 13.4164 1.65929 14.7213 1.84164C15.7081 1.97954 15.7729 1.97265 16.3813 1.66453C18.3814 0.651679 19.9605 0.71795 20.5323 1.8387C20.8177 2.39812 20.8707 3.84971 20.6494 5.04695C20.5267 5.71069 20.5397 5.79356 20.8353 6.22912C22.915 9.29385 21.4165 14.2616 17.8528 16.1155C17.5801 16.2574 17.3503 16.3452 17.163 16.4167C16.5879 16.6363 16.4133 16.703 16.6247 17.7138C16.7265 18.2 16.8491 19.4088 16.8973 20.4002C16.9844 22.1922 16.9831 22.2047 16.6688 22.5703C16.241 23.0676 15.6244 23.076 15.2066 22.5902C14.9341 22.2734 14.9075 22.1238 14.9075 20.9015C14.9075 19.0952 14.7095 17.8946 14.2417 16.8658C13.6854 15.6415 14.0978 15.185 15.37 14.9114C17.1383 14.531 18.5194 13.4397 19.2892 11.8146C20.0211 10.2698 20.1314 8.13501 18.8082 6.83668C18.4319 6.3895 18.4057 5.98446 18.6744 4.76309C18.7748 4.3066 18.859 3.71768 18.8615 3.45425C18.8653 3.03823 18.8274 2.97541 18.5719 2.97541C18.4102 2.97541 17.7924 3.21062 17.1992 3.49805L16.2524 3.95695C16.1663 3.99866 16.07 4.0147 15.975 4.0038C13.5675 3.72746 11.2799 3.72319 8.86062 4.00488C8.76526 4.01598 8.66853 3.99994 8.58215 3.95802L7.63585 3.49882C7.04259 3.21087 6.42482 2.97541 6.26317 2.97541C5.88941 2.97541 5.88379 3.25135 6.22447 4.89078C6.43258 5.89203 6.57262 6.11513 5.97101 6.91572C5.06925 8.11576 4.844 9.60592 5.32757 11.1716C5.93704 13.1446 7.4295 14.4775 9.52773 14.9222C10.7926 15.1903 11.1232 15.5401 10.6402 16.9905C10.26 18.1319 10.0196 18.4261 9.46707 18.4261C8.72365 18.4261 8.25796 17.7821 8.51424 17.1082C8.62712 16.8112 8.59354 16.7795 7.89711 16.5255C5.77117 15.7504 4.14514 14.0131 3.40172 11.7223C2.82711 9.95184 3.07994 7.64739 4.00175 6.25453C4.31561 5.78028 4.32047 5.74006 4.174 4.83217C4.09113 4.31822 4.04631 3.49103 4.0744 2.9938Z" fill="currentColor"/>
        <path d="M3.33203 15.9454C3.02568 15.4859 2.40481 15.3617 1.94528 15.6681C1.48576 15.9744 1.36158 16.5953 1.66793 17.0548C1.8941 17.3941 2.16467 17.6728 2.39444 17.9025C2.4368 17.9449 2.47796 17.9858 2.51815 18.0257C2.71062 18.2169 2.88056 18.3857 3.05124 18.5861C3.42875 19.0292 3.80536 19.626 4.0194 20.6962C4.11474 21.1729 4.45739 21.4297 4.64725 21.5419C4.85315 21.6635 5.07812 21.7352 5.26325 21.7819C5.64196 21.8774 6.10169 21.927 6.53799 21.9559C7.01695 21.9877 7.53592 21.998 7.99999 22.0008C8.00033 22.5527 8.44791 23.0001 8.99998 23.0001C9.55227 23.0001 9.99998 22.5524 9.99998 22.0001V21.0001C9.99998 20.4478 9.55227 20.0001 8.99998 20.0001C8.90571 20.0001 8.80372 20.0004 8.69569 20.0008C8.10883 20.0026 7.34388 20.0049 6.67018 19.9603C6.34531 19.9388 6.07825 19.9083 5.88241 19.871C5.58083 18.6871 5.09362 17.8994 4.57373 17.2891C4.34391 17.0194 4.10593 16.7834 3.91236 16.5914C3.87612 16.5555 3.84144 16.5211 3.80865 16.4883C3.5853 16.265 3.4392 16.1062 3.33203 15.9454Z" fill="currentColor"/>
    </g>
    <g id="instagram">
        <path fill-rule="evenodd" clip-rule="evenodd" d="M12 18C15.3137 18 18 15.3137 18 12C18 8.68629 15.3137 6 12 6C8.68629 6 6 8.68629 6 12C6 15.3137 8.68629 18 12 18ZM12 16C14.2091 16 16 14.2091 16 12C16 9.79086 14.2091 8 12 8C9.79086 8 8 9.79086 8 12C8 14.2091 9.79086 16 12 16Z" fill="currentColor"/>
        <path d="M18 5C17.4477 5 17 5.44772 17 6C17 6.55228 17.4477 7 18 7C18.5523 7 19 6.55228 19 6C19 5.44772 18.5523 5 18 5Z" fill="currentColor"/>
        <path fill-rule="evenodd" clip-rule="evenodd" d="M1.65396 4.27606C1 5.55953 1 7.23969 1 10.6V13.4C1 16.7603 1 18.4405 1.65396 19.7239C2.2292 20.8529 3.14708 21.7708 4.27606 22.346C5.55953 23 7.23969 23 10.6 23H13.4C16.7603 23 18.4405 23 19.7239 22.346C20.8529 21.7708 21.7708 20.8529 22.346 19.7239C23 18.4405 23 16.7603 23 13.4V10.6C23 7.23969 23 5.55953 22.346 4.27606C21.7708 3.14708 20.8529 2.2292 19.7239 1.65396C18.4405 1 16.7603 1 13.4 1H10.6C7.23969 1 5.55953 1 4.27606 1.65396C3.14708 2.2292 2.2292 3.14708 1.65396 4.27606ZM13.4 3H10.6C8.88684 3 7.72225 3.00156 6.82208 3.0751C5.94524 3.14674 5.49684 3.27659 5.18404 3.43597C4.43139 3.81947 3.81947 4.43139 3.43597 5.18404C3.27659 5.49684 3.14674 5.94524 3.0751 6.82208C3.00156 7.72225 3 8.88684 3 10.6V13.4C3 15.1132 3.00156 16.2777 3.0751 17.1779C3.14674 18.0548 3.27659 18.5032 3.43597 18.816C3.81947 19.5686 4.43139 20.1805 5.18404 20.564C5.49684 20.7234 5.94524 20.8533 6.82208 20.9249C7.72225 20.9984 8.88684 21 10.6 21H13.4C15.1132 21 16.2777 20.9984 17.1779 20.9249C18.0548 20.8533 18.5032 20.7234 18.816 20.564C19.5686 20.1805 20.1805 19.5686 20.564 18.816C20.7234 18.5032 20.8533 18.0548 20.9249 17.1779C20.9984 16.2777 21 15.1132 21 13.4V10.6C21 8.88684 20.9984 7.72225 20.9249 6.82208C20.8533 5.94524 20.7234 5.49684 20.564 5.18404C20.1805 4.43139 19.5686 3.81947 18.816 3.43597C18.5032 3.27659 18.0548 3.14674 17.1779 3.0751C16.2777 3.00156 15.1132 3 13.4 3Z" fill="currentColor"/>
    </g>
    <g id="lo">
        <path d="m24.93,7.28a10.91,10.91 0 0 0 -9.43,16.35l-5.55,0a2.73,2.73 0 0 1 -2.73,-2.73l0,-10.21c0,-1.51 -1.22,-2.73 -2.73,-2.73l-4.2,0a10.91,10.91 0 0 1 1.47,5.46l0,7.5a8.18,8.18 0 0 0 8.18,8.18l14.99,0a10.91,10.91 0 0 0 0,-21.81zm5.35,11.88a5.55,5.55 0 0 1 -5.52,4.47l-3.81,0a10.81,10.81 0 0 1 -1.47,-5.03a5.58,5.58 0 0 1 4.41,-5.77a5.45,5.45 0 0 1 6.39,6.32z" fill="currentColor" fill-rule="evenodd"/>
    </g>


    <!-- Arrows -->
    <g id="arrow-top">
        <path d="M10.9393,7.93932 C11.5251,7.35354 12.4749,7.35354 13.0607,7.93932 L18.7175,13.5962 C19.3033,14.182 19.3033,15.1317 18.7175,15.7175 C18.1317,16.3033 17.182,16.3033 16.5962,15.7175 L12,11.1213 L7.40381,15.7175 C6.81802,16.3033 5.86827,16.3033 5.28248,15.7175 C4.6967,15.1317 4.6967,14.182 5.28249,13.5962 L10.9393,7.93932 Z" fill="currentColor"> </path>
    </g>


    <!-- Switch -->
    <g id="moon">
        <path d="M3.32031 11.6835C3.32031 16.6541 7.34975 20.6835 12.3203 20.6835C16.1075 20.6835 19.3483 18.3443 20.6768 15.032C19.6402 15.4486 18.5059 15.6834 17.3203 15.6834C12.3497 15.6834 8.32031 11.654 8.32031 6.68342C8.32031 5.50338 8.55165 4.36259 8.96453 3.32996C5.65605 4.66028 3.32031 7.89912 3.32031 11.6835Z" stroke="currentColor" stroke-width="2" stroke-linecap="round" stroke-linejoin="round"/>
    </g>
    <g id="sun">
        <path d="M12 3V4M12 20V21M4 12H3M6.31412 6.31412L5.5 5.5M17.6859 6.31412L18.5 5.5M6.31412 17.69L5.5 18.5001M17.6859 17.69L18.5 18.5001M21 12H20M16 12C16 14.2091 14.2091 16 12 16C9.79086 16 8 14.2091 8 12C8 9.79086 9.79086 8 12 8C14.2091 8 16 9.79086 16 12Z" stroke="currentColor" stroke-width="2" stroke-linecap="round" stroke-linejoin="round"/>
    </g>

    <g id="infinity">
        <path class="st0" d="M501.652,204.587c-10.026-23.664-26.546-43.718-47.884-58.154c-10.669-7.222-22.302-12.753-34.576-16.528
		c-12.51-4.011-25.748-6.016-39.3-6.016c-17.171,0-33.934,3.212-49.656,9.627c-0.799,0.321-1.606,0.642-2.326,0.963
		c-0.478,0.243-0.963,0.4-1.363,0.642c-13.638,6.016-26.148,14.358-37.381,24.863c-3.524,3.368-6.894,6.902-10.026,10.59
		c-4.974,5.695-10.426,12.518-17.162,21.582l-3.534,4.652c-3.125,4.246-32.242,46.921-37.458,54.7
		c-2.006,3.046-4.332,6.415-6.815,9.948l-4.331,6.172c-5.053,7.222-11.069,15.322-16.928,22.865
		c-2.726,3.447-5.452,6.737-7.778,9.463c-2.248,2.648-4.332,4.731-5.773,6.095c-6.259,6.016-13.481,10.59-21.417,13.802
		c-8.186,3.368-16.927,5.053-25.834,5.053c-6.172,0-12.267-0.807-18.204-2.492c-1.128-0.235-2.17-0.556-3.29-0.955
		c-1.762-0.564-3.532-1.285-5.295-2.005c-12.354-5.217-22.858-13.802-30.323-24.95c-3.768-5.616-6.736-11.71-8.664-17.969
		c-2.083-6.98-3.125-13.716-3.125-20.532c0-9.228,1.849-18.212,5.374-26.789c5.217-12.275,13.881-22.788,25.027-30.323
		c5.452-3.69,11.555-6.58,18.048-8.585c6.737-2.162,13.638-3.204,20.375-3.204c9.141,0.078,17.891,1.762,25.912,4.966
		c8.021,3.368,15.236,8.021,21.417,13.802c1.519,1.441,3.525,3.69,5.773,6.172c4.01,4.732,8.984,10.912,14.194,17.891
		c0.963,1.285,1.849,2.484,2.812,3.768c7.857-11.632,32.406-47.65,35.775-52.216l1.927-2.648c-2.326-2.891-4.653-5.695-6.98-8.264
		c-3.776-4.331-6.823-7.622-10.026-10.669c-12.032-11.311-25.834-20.131-40.992-26.39c-15.8-6.416-32.562-9.627-49.734-9.627
		c-17.884,0-35.21,3.532-51.496,10.434c-23.5,9.862-43.631,26.469-58.076,47.807C15.4,192.633,9.87,204.265,5.86,216.697
		C2.005,229.449,0,242.609,0,256.004c0,17.884,3.447,35.133,10.348,51.418c9.949,23.578,26.468,43.631,47.807,58.154
		c10.747,7.136,22.38,12.752,34.654,16.598c12.674,3.932,25.826,5.937,39.3,5.937c17.171,0,33.934-3.29,49.734-9.627
		c14.037-5.773,26.955-13.794,38.423-24.142c0.885-0.721,1.684-1.528,2.482-2.248c3.455-3.125,6.58-6.572,10.113-10.669
		c5.053-5.773,10.426-12.588,17.241-21.572l3.455-4.653c2.005-2.726,18.204-26.468,31.278-45.566
		c7.543-11.069,13.802-20.21,15.001-21.972l2.326-3.212c5.617-8.021,11.633-16.199,16.928-22.944
		c2.726-3.447,5.452-6.736,7.778-9.463c2.248-2.647,4.332-4.731,5.773-6.094c6.18-5.86,13.394-10.513,21.338-13.794
		c2.006-0.807,4.011-1.528,5.86-2.092c1.919-0.556,3.768-1.042,5.773-1.442c4.653-0.963,9.384-1.441,14.194-1.519
		c9.548,0.078,18.612,1.919,26.876,5.452c12.353,5.209,22.858,13.794,30.323,24.941c3.846,5.616,6.736,11.719,8.656,18.048
		c2.091,6.58,3.133,13.481,3.133,20.46c0,9.306-1.849,18.283-5.373,26.79c-5.296,12.353-13.881,22.858-25.027,30.322
		c-5.695,3.846-11.711,6.737-18.048,8.656c-6.658,2.092-13.56,3.134-20.453,3.134c-8.907,0-17.648-1.684-25.835-5.053
		c-7.935-3.212-15.157-7.786-21.416-13.716c-1.519-1.449-3.525-3.689-5.852-6.259c-3.689-4.253-8.342-10.104-14.28-17.97
		c-0.886-1.12-1.684-2.326-2.57-3.524c-1.684,2.405-3.368,4.974-5.209,7.614c-19.974,29.202-28.638,41.79-30.479,44.438
		l-2.091,2.812c2.413,2.804,4.653,5.616,6.901,8.1c3.611,4.253,6.902,7.778,10.105,10.747c12.032,11.312,25.826,20.132,40.992,26.39
		c15.8,6.338,32.562,9.627,49.734,9.627c17.883,0,35.132-3.446,51.409-10.347c23.587-9.948,43.718-26.548,58.154-47.885
		c7.301-10.912,12.918-22.545,16.607-34.577c3.933-12.674,5.938-25.826,5.938-39.3C512,238.191,508.553,220.871,501.652,204.587z"/>
    </g>

</svg>
