<svg xmlns="http://www.w3.org/2000/svg" viewBox="398 7 36 36">
    <g transform="translate(398 7)">
        <path d="M0 18C0 .54.54 0 18 0s18 .54 18 18-.54 18-18 18-18-.54-18-18" fill-rule="evenodd"/>
        <path fill="#ffffff"  d="M22.452 10.8a7.068 7.068 0 0 0-6.113 10.601h-3.604a1.767 1.767 0 0 1-1.767-1.767V13.01c0-.976-.791-1.767-1.767-1.767H6.48a7.068 7.068 0 0 1 .954 3.533v4.86a5.3 5.3 0 0 0 5.3 5.3h9.718a7.068 7.068 0 0 0 0-14.135Zm3.464 7.704a3.604 3.604 0 0 1-3.574 2.898h-2.47a7.01 7.01 0 0 1-.95-3.26 3.618 3.618 0 0 1 2.858-3.746 3.534 3.534 0 0 1 4.136 4.108Z" fill-rule="evenodd"/>
    </g>
</svg>
